<?xml version="1.0" standalone="no"?>
<!DOCTYPE svg PUBLIC "-//W3C//DTD SVG 20010904//EN"
 "http://www.w3.org/TR/2001/REC-SVG-20010904/DTD/svg10.dtd">
<svg version="1.0" xmlns="http://www.w3.org/2000/svg"
 width="117.000000pt" height="117.000000pt" viewBox="0 0 117.000000 117.000000"
 preserveAspectRatio="xMidYMid meet">
<metadata>
Created by potrace 1.11, written by Peter Selinger 2001-2013
</metadata>
<g transform="translate(0.000000,117.000000) scale(0.100000,-0.100000)"
fill="#000000" stroke="none">
<path d="M867 944 c-348 -63 -649 -302 -789 -627 -41 -94 -78 -229 -78 -284
l0 -33 108 0 109 0 21 87 c39 159 124 305 238 414 77 72 137 112 237 159 100
46 184 67 302 76 84 7 92 9 123 40 26 26 32 40 32 74 0 34 -6 48 -34 76 -33
33 -36 34 -112 33 -44 0 -114 -7 -157 -15z"/>
<path d="M921 629 c-276 -54 -498 -254 -580 -523 -35 -112 -39 -107 90 -104
l111 3 23 64 c72 197 249 330 465 348 67 6 78 10 108 39 26 26 32 40 32 74 0
34 -6 48 -34 76 -32 32 -37 34 -102 33 -38 -1 -89 -5 -113 -10z"/>
<path d="M920 297 c-119 -40 -218 -134 -261 -247 l-19 -50 125 0 c113 0 125 2
135 20 17 31 93 70 151 77 74 9 119 52 119 113 0 34 -6 48 -34 76 -31 31 -39
34 -92 34 -34 0 -87 -10 -124 -23z"/>
</g>
</svg>
